 http://desibbrg.org/images/66952052392581364616.gif
 
http://desibbrg.org/images/60774261696674346407.jpg
 
http://desibbrg.org/images/69707315040032598993.png
 
http://desibbrg.org/images/19789020888525597960.png
 
http://desibbrg.org/images/42923264839957528313.png
 
http://desibbrg.org/images/34352928846707451251.png

Info - 

Genre............: Romance
Year.............: 2013
Cast.............: Arjun Rampal ,Chitrangda Singh
Director.........: Sudhir Mishra
Source...........: Team Ictv

Media Info - 
General
Complete name : Inkaar (2013)Dvd Rip with E subs Team Ictv Exclusive.avi
Format : AVI
Format/Info : Audio Video Interleave
Format profile : OpenDML
File size : 1.91 GiB
Duration : 2h 7mn
Overall bit rate : 2 145 Kbps

Video
ID : 0
Format : mp43
Codec ID : mp43
Duration : 2h 7mn
Bit rate : 1 999 Kbps
Width : 852 pixels
Height : 480 pixels
Display aspect ratio : 16:9
Frame rate : 29.970 fps
Bits/(Pixel*Frame) : 0.163
Stream size : 1.78 GiB (93%)

Audio
ID : 1
Format : MPEG Audio
Format version : Version 1
Format profile : Layer 3
Mode : Joint stereo
Mode extension : MS Stereo
Codec ID : 55
Codec ID/Hint : MP3
Duration : 2h 7mn
Bit rate mode : Constant
Bit rate : 128 Kbps
Channel(s) : 2 channels
Sampling rate : 48.0 KHz
Compression mode : Lossy
Stream size : 117 MiB (6%)
Alignment : Aligned on interleaves
Interleave, duration : 24 ms (0.72 video frame)
Writing library : LAME3.98.2

Ripper : black_pearl

Seeding 24x7... Extreme Seeding...


Enjoy!
